<svg xmlns="http://www.w3.org/2000/svg" viewBox="0 0 262.38 316.99"><defs><style>.cls-1{fill:#fff;}.cls-2{fill:#1d3244;}.cls-3{fill:none;stroke:#1d3244;stroke-miterlimit:10;stroke-width:4px;}</style></defs><title>Asset 1</title><g id="Layer_2" data-name="Layer 2"><g id="OBJECTS"><path class="cls-1" d="M251.27,135.86s-3.47-9.54-13-12-20.52-2-34.24,15.32a72.93,72.93,0,0,1-7.24,7.9c.12-14.22.8-50.29,4.64-83.9,4.91-43.06,7.51-54.91,7.51-54.91S196,10,190.5,41.07L184.81,3.94s-8.25,7.4-8.23,30.35l-11-23.41s-7.81,8.19-4.12,29.33L150.13,23a62.5,62.5,0,0,0-2.87,26.49l-11.2-7.47s-4,11.91.29,29.56l-10.81-6.82S123.61,78.1,128,90.41l-6.45-1.8a60.83,60.83,0,0,0,4.84,27.14l-6.43-4.53s-4.39,16,2.7,28.62c-4.52-2.07-8.81-3.94-12.6-5.43-22.11-8.67-49.2-24.71-74.34-81.49,0,0-2.34,8.17,2.25,21.8h0L20.38,44.83s-3.3,9.28,1.6,23.29L8.82,54.22s-4.45,11.22,7.81,29h0L2.32,73.94s-3.71,12,17.09,29.22h0L2.06,95.4S.92,104.55,16,115.3h0l-8-.83s-1.93,7.85,14.5,15.82h0l-12.4-.54s3.9,11.76,20,16.08l-11.76,1.62s2.71,8.7,20.38,12.63h0L30.06,162s5,7.51,20.56,10.05l-8.46,4.86s4.76,4.88,18,6l-5.94,6.86s9.12,5.83,27.71,4.48l-5.46,5.92s10.76,7.35,30.35,1.43l-3.56,6.95s10.2,4.65,19.89-1a97.2,97.2,0,0,0-18.19,33.09c-15.81,10-38.55,26-39.1,36.22L57,283.23s3.59,3.94,8,3.71l-8,7.42a15.66,15.66,0,0,0,7.08,1.8l0,0-5,7.8s6.42,2.06,11.36-1.19l-1.54,11.05s11.37-4.33,16.15-11.78l-2.42,7.71c6-3,9.86-8.07,12.29-13.31,8.41-1.3,14.29-12.89,17.63-21.91l-1.31,1.61,2.6-5.3,1.38-7.05s11.56-5.65,11.71-5.68a26.83,26.83,0,0,0,1.71-2.12c6.53,2,15.79,2.47,24.58-5.83,19.07-3.79,44.89-3.63,63.64-59.66,8.71-26,14.3-34.31,22.54-40.67s21-1,21-1C260.8,140.19,251.27,135.86,251.27,135.86Z"/><path class="cls-2" d="M171.36,164.75c-14-6-27.61-12.61-41.32-19-6.85-3.16-13.71-6.33-20.67-9-3.57-1.41-7.16-2.86-10.64-4.58l-2.6-1.3c-.86-.45-1.7-.94-2.55-1.41s-1.7-.94-2.53-1.44l-2.47-1.55A104.31,104.31,0,0,1,70.5,111.86l-2-2.07c-.68-.69-1.35-1.39-2-2.13l-3.82-4.36c-1.22-1.5-2.39-3-3.57-4.55-.59-.77-1.2-1.51-1.76-2.3l-1.65-2.37a181.13,181.13,0,0,1-12-19.63c-1.79-3.39-3.44-6.84-5.17-10.25s-3.09-7-4.65-10.47h0l3.75-.26c-.06.26-.12.77-.19,1.14l-.13,1.28c-.07.86-.06,1.75-.11,2.62l.11,2.66c.06.88.2,1.77.3,2.65A20.1,20.1,0,0,0,38,66.47c.18.88.31,1.76.52,2.64l.73,2.6a23.43,23.43,0,0,0,.79,2.59A82.86,82.86,0,0,0,50,93.78l1.5,2.32c.49.77,1.1,1.48,1.64,2.22l3.34,4.42c.53.76,1.16,1.43,1.76,2.14L60,107c1.23,1.39,2.37,2.85,3.62,4.23l7.68,8.11c1.34,1.29,2.67,2.61,4,3.93s2.66,2.64,4,4c-1.54-1.08-3.05-2.2-4.56-3.32s-3-2.24-4.52-3.39-2.86-2.44-4.29-3.67-2.83-2.5-4.23-3.77-2.66-2.68-4-4l-2-2c-.65-.69-1.33-1.35-1.92-2.1l-3.61-4.4c-.58-.75-1.23-1.45-1.77-2.23L46.77,96l-1.64-2.34a27.39,27.39,0,0,1-1.56-2.4l-2.9-5c-.9-1.69-1.67-3.45-2.51-5.19a27.2,27.2,0,0,1-1.1-2.67l-1-2.71a24.1,24.1,0,0,1-.88-2.77l-.79-2.8c-.23-.94-.4-1.9-.59-2.86a25.51,25.51,0,0,1-.44-2.89c-.09-1-.22-2-.28-2.93l-.06-3c.06-1,.06-2,.2-3a20.64,20.64,0,0,1,.56-3.12l1.42-5.28,2.33,5h0l5,10.15c1.78,3.31,3.48,6.66,5.32,9.93L50.64,77l1.42,2.43,1.53,2.35,3,4.73c1,1.55,2.15,3,3.22,4.57l1.63,2.28c.54.75,1.15,1.47,1.72,2.2,1.17,1.45,2.29,2.94,3.47,4.37l3.68,4.19c.59.71,1.24,1.38,1.9,2l2,2a105.42,105.42,0,0,0,17.15,14,116.32,116.32,0,0,0,19.8,10.09c7.11,2.93,14,6.16,20.81,9.59,3.4,1.71,6.78,3.44,10.11,5.28s6.67,3.65,9.95,5.57C158.58,156.5,165.08,160.45,171.36,164.75Z"/><path class="cls-2" d="M36.21,75.73,18.65,45.84l3.61-.34h0a19.17,19.17,0,0,0-.5,2.43c-.13.86-.22,1.74-.28,2.62a36.63,36.63,0,0,0,.05,5.34A47.25,47.25,0,0,0,23.7,66.43a60,60,0,0,0,4.34,10,81.21,81.21,0,0,0,6,9.22,114.62,114.62,0,0,0,15.22,16.19c5.56,5,11.45,9.63,17.4,14.34a108.7,108.7,0,0,1-19.32-12c-1.5-1.18-2.95-2.42-4.42-3.64s-2.85-2.56-4.21-3.91-2.73-2.7-4-4.14-2.55-2.89-3.77-4.38a81.17,81.17,0,0,1-6.56-9.59,61,61,0,0,1-4.78-10.68A46.93,46.93,0,0,1,17.28,56.2a42.5,42.5,0,0,1,0-6,28.14,28.14,0,0,1,.39-3,22.09,22.09,0,0,1,.78-3.08h0l1.4-4.1,2.21,3.76L39.66,73.7Z"/><path class="cls-2" d="M20.57,69.54,7.37,55.6,10.68,55h0l-.06.2-.06.29c0,.2-.09.39-.12.6l-.16,1.27c0,.43,0,.88-.06,1.32a8.29,8.29,0,0,0,0,1.32l.08,1.33a6.78,6.78,0,0,0,.14,1.34c.15.89.28,1.78.45,2.66a42.76,42.76,0,0,0,1.64,5.23c.34.85.65,1.72,1,2.56l1.26,2.48A84.45,84.45,0,0,0,28.17,93.68c1.29,1.39,2.73,2.66,4.09,4l2.05,2,1,1,1.1.93q2.19,1.84,4.37,3.75L43,107.26c.73.62,1.52,1.18,2.28,1.77l4.57,3.56c1.53,1.18,3,2.44,4.62,3.52,3.15,2.25,6.3,4.51,9.41,6.89-3.48-1.74-6.92-3.59-10.36-5.44-1.73-.91-3.37-2-5-3l-5-3.15c-.82-.54-1.66-1.05-2.45-1.62L38.73,108q-2.37-1.76-4.71-3.55l-1.17-.89c-.38-.31-.74-.65-1.12-1l-2.22-2c-1.46-1.33-3-2.59-4.38-4L21,92.37a20.81,20.81,0,0,1-2-2.23l-1.86-2.35-1.86-2.35c-.57-.82-1.11-1.68-1.66-2.52l-1.62-2.54c-.56-.84-1-1.79-1.43-2.68L9.25,75c-.39-.94-.73-1.91-1.09-2.87A39.43,39.43,0,0,1,6.45,66.2c-.16-1-.28-2.06-.41-3.09a10.05,10.05,0,0,1-.11-1.56L5.9,60A12,12,0,0,1,6,58.39c0-.53.07-1.06.15-1.59l.31-1.6c.07-.27.15-.54.23-.82L6.78,54,7,53.48H7l1.07-3,2.24,2.37L23.48,66.79Z"/><path class="cls-2" d="M15.53,84.93,1.23,75.62l3-1.08L4.18,75a3.36,3.36,0,0,0,0,.56,11.83,11.83,0,0,0,0,1.19l.13,1.23a10.89,10.89,0,0,0,.25,1.24c.1.41.16.82.28,1.24l.43,1.22.43,1.22L6.25,84a42.64,42.64,0,0,0,5.94,8.9c4.74,5.53,10.61,10.16,16.61,14.54A206.63,206.63,0,0,0,47.94,119.2c1.67.88,3.3,1.83,4.94,2.74q1.24.69,2.46,1.41l2.51,1.32c3.33,1.78,6.66,3.61,9.92,5.62-3.67-1-7.27-2.28-10.87-3.55l-2.69-1c-.88-.36-1.75-.74-2.62-1.13-1.74-.78-3.5-1.52-5.23-2.34-3.51-1.5-6.81-3.45-10.19-5.26l-2.52-1.37c-.83-.48-1.63-1-2.45-1.52l-4.87-3.08C20,106.67,13.81,101.93,8.68,95.92L6.86,93.57a20.08,20.08,0,0,1-1.74-2.42L3.55,88.59a10.07,10.07,0,0,1-.69-1.35l-.63-1.38c-.21-.47-.43-.92-.63-1.39L1.13,83,.66,81.53C.53,81,.45,80.5.35,80S.13,79,.1,78.43L0,76.83a15.28,15.28,0,0,1,.07-1.65,5.21,5.21,0,0,1,.11-.85l.08-.44c0-.15.09-.36.14-.54l.71-2.57,2.29,1.49,14.3,9.3Z"/><path class="cls-2" d="M194.4,147.44q.16-17.56,1.08-35c.59-11.67,1.38-23.33,2.47-35s2.48-23.24,3.91-34.82q1.09-8.68,2.31-17.36c.84-5.81,1.65-11.52,2.81-17.41h0l2.22,2.41a5.67,5.67,0,0,0-.74.22c-.3.14-.61.25-.92.42A16,16,0,0,0,205.72,12,19.21,19.21,0,0,0,204,13.5l-.8.79c-.26.28-.5.59-.75.88a35.49,35.49,0,0,0-4.91,8c-.38.7-.63,1.47-.94,2.2s-.62,1.47-.89,2.23c-.49,1.54-1.06,3-1.48,4.61s-.87,3.11-1.22,4.7l-1,4.77-3.21-.56.95-4.94c.33-1.64.79-3.26,1.18-4.9s1-3.23,1.46-4.85c.26-.81.59-1.59.89-2.39s.57-1.6,1-2.37a39.14,39.14,0,0,1,5.29-8.92c.28-.34.55-.69.84-1l.94-1a22.12,22.12,0,0,1,2-1.82,18.91,18.91,0,0,1,2.35-1.52A13.38,13.38,0,0,1,207,6.77a8.76,8.76,0,0,1,1.63-.48l2.84-.51-.62,2.92h0c-1.09,5.55-1.93,11.38-2.75,17.11s-1.57,11.53-2.3,17.3c-1.43,11.56-2.83,23.12-3.9,34.68s-1.86,23.18-2.45,34.8-1,23.26-1.08,34.85Z"/><path class="cls-2" d="M192.65,55.13a110.67,110.67,0,0,1-3.51-12.56c-.95-4.22-1.7-8.47-2.5-12.72l-1.1-6.38-1-6.39c-.64-4.27-1.24-8.54-1.69-12.84l3.31,1.19h0l-.42.51-.48.66c-.3.46-.61.93-.89,1.43a30,30,0,0,0-1.54,3.11,43.69,43.69,0,0,0-2.21,6.75,60,60,0,0,0-1.32,7.1c-.34,2.4-.51,4.84-.63,7.28-.23,4.89-.07,9.82.19,14.77s.69,9.93,1,15a83.85,83.85,0,0,1-3.91-14.64c-.47-2.49-.76-5-1-7.55s-.34-5.08-.34-7.65a64.71,64.71,0,0,1,1.68-15.37,41.4,41.4,0,0,1,2.57-7.46,27.09,27.09,0,0,1,1.93-3.54,19.11,19.11,0,0,1,1.2-1.68c.22-.28.44-.55.69-.82a9.6,9.6,0,0,1,.85-.86h0L186,0l.74,3.64c.86,4.23,1.57,8.49,2.24,12.75L190,22.8l.85,6.41c.52,4.29,1.07,8.57,1.43,12.88A110.92,110.92,0,0,1,192.65,55.13Z"/><path class="cls-2" d="M119.93,231.65c-4.79,3.72-9.68,7.21-14.52,10.73s-9.72,7-14.46,10.53-9.4,7.26-13.67,11.23a60.76,60.76,0,0,0-5.94,6.21c-1.74,2.16-3.19,4.55-3.52,6.72l-4-.11a12.94,12.94,0,0,1,1.25-5.22,21.21,21.21,0,0,1,1.16-2.22c.42-.7.89-1.35,1.34-2a52,52,0,0,1,6.25-7c2.25-2.12,4.56-4.15,7-6s4.83-3.72,7.34-5.43,5-3.43,7.59-5c1.28-.8,2.58-1.58,3.87-2.36l4-2.23A134.26,134.26,0,0,1,119.93,231.65Z"/><path class="cls-2" d="M18.58,105,1.24,97.23,4,95.65l0,.43a3,3,0,0,0,.06.58,9,9,0,0,0,.27,1.23c.13.41.26.82.38,1.24s.36.81.53,1.22a9.58,9.58,0,0,0,.58,1.21l.71,1.17a11.69,11.69,0,0,0,.73,1.15L8.2,105A41.06,41.06,0,0,0,12,109.1c.66.67,1.46,1.22,2.18,1.84s1.46,1.22,2.22,1.81l4.8,3.24,5.09,2.86,1.27.72,1.33.63,2.66,1.25c1.79.81,3.52,1.74,5.38,2.4,3.68,1.41,7.28,3,11.08,4.18,1.88.62,3.75,1.25,5.63,1.9s3.79,1.14,5.69,1.74L65,133.4l2.85.9,2.89.79c3.84,1.06,7.68,2.18,11.51,3.44-4-.37-8-.88-12-1.44l-3-.44-2.95-.59-5.91-1.24c-3.94-.78-7.81-1.95-11.67-3.09s-7.67-2.55-11.49-3.9c-7.5-3-15-6.41-21.66-11.39-.82-.64-1.61-1.33-2.41-2s-1.64-1.29-2.37-2a37.6,37.6,0,0,1-4.21-4.76l-1-1.29c-.31-.43-.55-.93-.83-1.39l-.81-1.42A11.36,11.36,0,0,1,1.41,102c-.21-.52-.44-1-.62-1.55L.36,98.84a15.82,15.82,0,0,1-.27-1.72,6.66,6.66,0,0,1,0-.91v-.47c0-.15,0-.39,0-.59l.25-2.72,2.56,1.14,17.34,7.76Z"/><path class="cls-2" d="M15.8,117.29l-8-.83L10,115h0c0-.08,0,0,0,0V115a1.61,1.61,0,0,0,0,.22,5.24,5.24,0,0,0,0,.53,7,7,0,0,0,.27,1.12,11,11,0,0,0,1.13,2.25,18.81,18.81,0,0,0,3.75,4,46,46,0,0,0,10.06,5.91,94.44,94.44,0,0,0,11.28,4.18c3.84,1.25,7.78,2.23,11.72,3.19,7.91,1.89,16,3.29,24,4.62s16.2,2.52,24.32,4a216.86,216.86,0,0,1-24.71-.88,229.76,229.76,0,0,1-24.54-3.64,120.93,120.93,0,0,1-24-7.33,45.9,45.9,0,0,1-11-6.68,22.81,22.81,0,0,1-4.52-5.08,14,14,0,0,1-1.5-3.3A11.37,11.37,0,0,1,6,116.24a8.56,8.56,0,0,1,0-1,5.17,5.17,0,0,1,0-.54c0-.09,0-.18,0-.29s0-.19.08-.39h0l.39-1.69,1.76.18,8,.83Z"/><path class="cls-2" d="M103.08,240.06a66,66,0,0,1,3-9.06,82.55,82.55,0,0,1,4.08-8.54,86.54,86.54,0,0,1,17.32-22.34,79.81,79.81,0,0,1,7.33-5.93,67.59,67.59,0,0,1,16.57-8.63,105.64,105.64,0,0,0-14.9,10.76c-2.31,2-4.45,4.12-6.57,6.27s-4.05,4.5-5.94,6.85a108.86,108.86,0,0,0-9.89,15.15q-2.13,4-4,8.12a86.65,86.65,0,0,0-3.21,8.35Z"/><path class="cls-2" d="M22.44,132.29,10,131.75l2-2.63h0c.12.31.35.79.56,1.19s.47.84.73,1.25A24.52,24.52,0,0,0,15,133.93a25.59,25.59,0,0,0,4.2,4.12c.76.61,1.6,1.14,2.42,1.69s1.68,1,2.6,1.42a26.57,26.57,0,0,0,2.73,1.2,25.62,25.62,0,0,0,2.84,1,48.11,48.11,0,0,0,5.91,1.28l3.11.42c1,.13,2.09.22,3.13.33,2.09.24,4.2.36,6.3.56s4.22.31,6.34.41q6.34.36,12.72.62l12.76.47c2.13.07,4.26.18,6.39.31s4.26.26,6.39.43a112.28,112.28,0,0,1,12.76,1.58c-8.55.61-17,1.13-25.59,1.24-4.26.09-8.53,0-12.81,0s-8.55-.08-12.83-.27-8.58-.37-12.87-.79c-1.08-.11-2.15-.2-3.23-.32l-3.24-.42a44.48,44.48,0,0,1-6.56-1.44,33.81,33.81,0,0,1-12-6.25,29.47,29.47,0,0,1-4.79-4.94,22.64,22.64,0,0,1-1.92-2.89c-.29-.5-.56-1-.81-1.55a15.63,15.63,0,0,1-.71-1.74h0l-1-2.76,3,.13,12.4.54Z"/><path class="cls-2" d="M174.72,38.43l-11-26.8,3.29.63h0a11.23,11.23,0,0,0-.63,1c-.22.39-.43.82-.64,1.23l-.57,1.3-.48,1.35c-.18.45-.28.93-.42,1.39s-.29.93-.39,1.41c-.17,1-.43,1.9-.55,2.89a52.55,52.55,0,0,0-.38,12c0,2,.46,4,.62,6.1l1,6.11c.43,2,.79,4.08,1.2,6.14s.9,4.11,1.24,6.23c-1.09-1.83-2.07-3.72-3-5.64s-1.65-3.93-2.44-5.93-1.3-4.1-1.82-6.19c-.22-1-.45-2.11-.65-3.17-.09-.54-.22-1.06-.29-1.6l-.2-1.62a44.4,44.4,0,0,1,.07-13.17,10.3,10.3,0,0,1,.31-1.64l.38-1.64a30.53,30.53,0,0,1,1.07-3.23l.68-1.58.81-1.53c.32-.5.61-1,1-1.49a14.32,14.32,0,0,1,1.25-1.5h0l2.09-2.3,1.21,2.93,11,26.79Z"/><path class="cls-2" d="M160,42.45,148.44,24.09l3.56-.35h0c-.54,1.89-1,4-1.4,6s-.72,4.12-.92,6.21a70.69,70.69,0,0,0-.29,12.51,66.93,66.93,0,0,0,2.1,12.37A93.63,93.63,0,0,0,155.76,73,35.86,35.86,0,0,1,148.39,62a41.8,41.8,0,0,1-2.2-6.38A59.68,59.68,0,0,1,145,48.93a58.44,58.44,0,0,1,0-13.48,57.79,57.79,0,0,1,1.21-6.64,42.26,42.26,0,0,1,2.09-6.5h0l1.42-3.76L151.83,22l11.54,18.36Z"/><path class="cls-2" d="M36,149l-17.59.47,1.85-2.59h0l.15.27c.08.12.11.24.21.37s.34.53.52.78a16.62,16.62,0,0,0,1.3,1.5l.7.71c.24.24.53.44.79.66a14.51,14.51,0,0,0,1.65,1.24l1.77,1.12,1.9.94.95.48c.32.16.67.27,1,.4l2,.78a75.75,75.75,0,0,0,17.23,3.44l4.47.25,2.23.14c.75,0,1.5,0,2.25,0h6.75l2.25-.09c1.51-.08,3-.1,4.53-.13s3,0,4.53-.12c3-.11,6.08-.19,9.17-.06-2.93.92-5.91,1.64-8.91,2.32a43.18,43.18,0,0,1-4.52.8c-1.52.22-3,.44-4.57.61a123.85,123.85,0,0,1-18.49.56,69.36,69.36,0,0,1-18.46-3.44l-2.24-.88c-.37-.15-.75-.27-1.11-.45l-1.08-.56-2.15-1.15-2-1.38a17.9,17.9,0,0,1-1.94-1.56c-.31-.28-.64-.53-.93-.84l-.87-.93a15.15,15.15,0,0,1-1.59-2A12.91,12.91,0,0,1,16.44,148h0l-.87-2.52,2.73-.07L35.9,145Z"/><path class="cls-2" d="M39.12,162l-8.63,1.9,1.23-3.06.48.52.61.59c.43.39.9.75,1.34,1.13l1.45,1,1.55.93a15.26,15.26,0,0,0,1.6.85c.56.25,1.08.57,1.65.78l1.71.69.85.34.89.27a53,53,0,0,0,7.23,1.77c1.24.16,2.48.36,3.72.54s2.52.17,3.78.27l1.89.13H66.2c1.27,0,2.55-.17,3.83-.24s2.56-.09,3.84-.24,2.56-.24,3.85-.36,2.59-.14,3.87-.32c2.59-.29,5.18-.55,7.85-.63C87,170,84.53,170.88,82,171.73s-5.11,1.32-7.7,1.9-5.25.77-7.9,1.05l-4,.21-2,.1-2-.07a52.44,52.44,0,0,1-16-2.55l-1-.31-1-.39-1.91-.8c-.65-.25-1.24-.63-1.86-.94a19.37,19.37,0,0,1-1.82-1c-.59-.38-1.18-.75-1.76-1.15l-1.67-1.33c-.52-.49-1.06-1-1.55-1.5a15,15,0,0,1-1.49-1.82l-1.65-2.43,2.89-.63,8.63-1.91Z"/><path class="cls-2" d="M53.71,174.21l-10.77,4.52.66-3.23h0c.22.17.73.53,1.14.79s.92.54,1.42.77,1,.49,1.5.69l1.55.62A40.49,40.49,0,0,0,55.82,180c1.13.19,2.26.41,3.42.49s2.3.29,3.47.29l3.5.15,3.53-.08c1.17,0,2.35-.07,3.53-.16l3.54-.26c2.35-.32,4.72-.52,7.09-.84l3.55-.51c1.19-.15,2.39-.26,3.58-.46,2.37-.37,4.77-.7,7.23-.9-2.21,1-4.48,2-6.76,2.82s-4.66,1.47-7,2.14c-1.17.36-2.39.53-3.58.8s-2.41.48-3.62.7l-3.66.48c-1.22.16-2.44.33-3.68.37A59.37,59.37,0,0,1,55,184.49a38.73,38.73,0,0,1-7.37-2l-1.79-.77c-.59-.27-1.16-.61-1.74-.92s-1.14-.7-1.7-1.07a15,15,0,0,1-1.7-1.44h0l-2.12-2.07,2.78-1.16,10.77-4.53Z"/><path class="cls-2" d="M63.23,184.53l-7.73,6.73-.23-3.2h0c.3.17.79.4,1.22.59s.93.37,1.38.56c.94.34,1.9.67,2.88.95a51.85,51.85,0,0,0,6,1.36,71.27,71.27,0,0,0,12.41.87,102.48,102.48,0,0,0,12.57-1c2.1-.27,4.2-.6,6.33-.84s4.23-.64,6.43-.81c-1.94,1-3.94,1.86-6,2.68s-4.13,1.39-6.24,1.92-4.26,1-6.44,1.25l-3.25.46c-1.1.11-2.19.18-3.29.26A61.34,61.34,0,0,1,66,195.79a46.79,46.79,0,0,1-6.55-1.54,33.9,33.9,0,0,1-3.19-1.17c-.53-.24-1-.45-1.57-.73a17.81,17.81,0,0,1-1.62-.92h0L50.82,190l2-1.79,7.73-6.73Z"/><path class="cls-2" d="M85.23,195.61l-7.53,6.1-.13-3.21h0a11.52,11.52,0,0,0,1,.5c.38.18.79.33,1.19.49s.82.29,1.23.43a10.61,10.61,0,0,0,1.25.38c.43.12.84.25,1.27.35l1.3.27c.86.22,1.75.28,2.63.43a46.57,46.57,0,0,0,10.75,0,68.48,68.48,0,0,0,10.76-2.2c1.78-.5,3.56-1.07,5.4-1.52a54.76,54.76,0,0,1,5.54-1.51,52.7,52.7,0,0,1-4.68,3.45c-1.69.93-3.39,1.89-5.18,2.66a46.23,46.23,0,0,1-5.52,1.93l-2.83.79q-1.45.28-2.91.54a41.21,41.21,0,0,1-11.9.33A31.12,31.12,0,0,1,81,204.49a23.09,23.09,0,0,1-2.86-1.1c-.47-.23-.94-.43-1.4-.7a15.82,15.82,0,0,1-1.43-.89h0l-2.26-1.48,2.13-1.72,7.54-6.1Z"/><path class="cls-3" d="M108.11,201.18l-4.88,7.35s10.54,5.33,20.7-2.05"/><path class="cls-2" d="M119.93,251.73c3,1,5.82,1.81,8.63,2.45a29.07,29.07,0,0,0,8.34.87,22.84,22.84,0,0,0,7.9-1.88,33,33,0,0,0,7.06-4.42h0l.46-.41.53-.1c6.76-1.3,13.37-2.18,19.59-4.31a48.4,48.4,0,0,0,16.84-9.65,60.73,60.73,0,0,0,6.8-7.08,85.35,85.35,0,0,0,5.73-8.08,121,121,0,0,0,8.95-17.85c2.58-6.18,4.57-12.58,6.89-19a141.6,141.6,0,0,1,8.14-18.94,51.62,51.62,0,0,1,5.87-8.77,39.64,39.64,0,0,1,3.7-3.86c.67-.58,1.33-1.18,2-1.72a18.37,18.37,0,0,1,2.28-1.65,19.57,19.57,0,0,1,10.87-2.52,31.17,31.17,0,0,1,5.39.69,32.62,32.62,0,0,1,5.22,1.56l-2.77,1.74a9.05,9.05,0,0,0-.48-3.39,10.38,10.38,0,0,0-1.7-3.08,15.11,15.11,0,0,0-2.62-2.62c-.5-.39-1-.76-1.55-1.1a14.58,14.58,0,0,0-1.58-.89l-.7-.34-.35-.8h0a19.67,19.67,0,0,0-1.22-2.27,23.63,23.63,0,0,0-1.54-2.17,19.15,19.15,0,0,0-3.78-3.59,15.26,15.26,0,0,0-4.56-2.2l-.61-.17L237,126l-1.35-.29c-.9-.17-1.79-.31-2.68-.39a22,22,0,0,0-10.38,1.39,33.13,33.13,0,0,0-9.19,5.79,69.07,69.07,0,0,0-7.82,8.19,76.91,76.91,0,0,1-8.38,8.65,49.19,49.19,0,0,1-9.94,6.78,32.87,32.87,0,0,1-11.35,3.67,63,63,0,0,0,9.94-6A81,81,0,0,0,202.21,138c1.22-1.56,2.48-3.15,3.83-4.64a60.56,60.56,0,0,1,4.31-4.32,35.68,35.68,0,0,1,10.49-6.77,25.87,25.87,0,0,1,12.63-1.68c1.06.12,2.1.28,3.12.5.51.1,1,.22,1.51.34l.75.19.8.23a19.89,19.89,0,0,1,5.88,3,22.08,22.08,0,0,1,4.53,4.63,22.41,22.41,0,0,1,1.72,2.7,21.21,21.21,0,0,1,1.36,3h0L252.09,134a21.84,21.84,0,0,1,4,2.5,19.81,19.81,0,0,1,3.3,3.3,14.74,14.74,0,0,1,2.33,4.25,13.28,13.28,0,0,1,.69,4.88l-.12,2.79-2.66-1.05a29.24,29.24,0,0,0-4.51-1.33,27.74,27.74,0,0,0-4.69-.6,15.51,15.51,0,0,0-8.66,1.95,14.29,14.29,0,0,0-1.84,1.33c-.64.5-1.23,1-1.84,1.57a36.45,36.45,0,0,0-3.34,3.47,48.47,48.47,0,0,0-5.4,8.11,137.4,137.4,0,0,0-7.9,18.39c-1.16,3.17-2.18,6.34-3.33,9.58s-2.31,6.44-3.62,9.61a126.32,126.32,0,0,1-9.25,18.46,90.71,90.71,0,0,1-6,8.49,65.68,65.68,0,0,1-7.27,7.56,52.47,52.47,0,0,1-18.2,10.44c-6.65,2.26-13.55,3.17-20.08,4.43l1-.5h0A23.15,23.15,0,0,1,137,259.48a24.85,24.85,0,0,1-4.9-.55,22.27,22.27,0,0,1-4.63-1.46A18.74,18.74,0,0,1,119.93,251.73Z"/><path class="cls-3" d="M128.22,255.25s-3,5.73-12.34,8.55c0,0-7,30.77-21.09,32.72"/><path class="cls-2" d="M99.19,278.32a26.94,26.94,0,0,1,.26,9.56,39.28,39.28,0,0,1-2.59,9.33,38.74,38.74,0,0,1-2.24,4.4,30.43,30.43,0,0,1-3,4,23.53,23.53,0,0,1-8.11,6h0l-4.58,2,1.78-4.42,9.47-23.47-5.65,24.66L81.77,308h0a26.92,26.92,0,0,0,6.56-5.32,33.29,33.29,0,0,0,4.82-7.18,56,56,0,0,0,3.3-8.31C97.39,284.31,98.26,281.38,99.19,278.32Z"/><path class="cls-2" d="M94.79,272.05c-1.58,2.88-3.29,5.65-5,8.39s-3.55,5.44-5.4,8.1-3.75,5.29-5.71,7.86-4,5.07-6.26,7.43l.4-.91h0L70.9,314.19,68.21,312h0c1.45-.52,3-1.21,4.47-1.9A44,44,0,0,0,77,307.73a27.78,27.78,0,0,0,7.35-6.28l1.61,1a20.66,20.66,0,0,1-3.16,4.36,31.09,31.09,0,0,1-4,3.54,49.58,49.58,0,0,1-4.41,2.93,39.36,39.36,0,0,1-4.76,2.43h0L66.38,317l.57-3.46,1.88-11.27h0l0-.32.38-.58c1.76-2.74,3.73-5.3,5.73-7.85s4.11-5,6.28-7.41,4.34-4.82,6.59-7.17S92.37,274.27,94.79,272.05Z"/><path class="cls-2" d="M95.32,265.17c-2.17,3-4.53,5.85-6.93,8.65S83.49,279.29,81,282s-5.06,5.33-7.61,8-5.14,5.24-7.74,7.82l.29-.37c-.83,1.3-1.69,2.58-2.53,3.87s-1.7,2.58-2.59,3.85l-1.07-3h0a15.67,15.67,0,0,0,2.57.48,14.9,14.9,0,0,0,2.67,0A9.56,9.56,0,0,0,69.64,301L72,304.22a13.45,13.45,0,0,1-6.66,2.36,17.75,17.75,0,0,1-3.42,0,19,19,0,0,1-3.4-.65h0l-2.4-.72,1.32-2.26c.78-1.33,1.59-2.64,2.41-3.95s1.61-2.63,2.45-3.93l.12-.2.17-.17q3.9-3.89,7.87-7.7c2.66-2.53,5.31-5.06,8-7.55s5.39-5,8.19-7.38S92.28,267.31,95.32,265.17Z"/><path class="cls-2" d="M86.44,267.05A96.85,96.85,0,0,1,80,274.82c-2.25,2.49-4.62,4.85-7,7.23-4.73,4.74-9.55,9.37-14.6,13.77l-.53-3.28h0a11.69,11.69,0,0,0,1.78.56,10.22,10.22,0,0,0,1.87.25,5.8,5.8,0,0,0,3.25-.75l2.1,3.41a9.87,9.87,0,0,1-5.48,1.34,14.23,14.23,0,0,1-2.63-.35,15.65,15.65,0,0,1-2.55-.82h0L53.54,295l2.14-2.12c4.76-4.71,9.73-9.18,14.81-13.54,2.54-2.17,5.08-4.36,7.73-6.42A94.85,94.85,0,0,1,86.44,267.05Z"/><path class="cls-2" d="M79.69,266.75a49.16,49.16,0,0,1-4.89,5.18c-1.71,1.62-3.52,3.1-5.32,4.59a126.81,126.81,0,0,1-11.26,8.33l.17-3.09h0a7.84,7.84,0,0,0,.83.61,9.58,9.58,0,0,0,1,.55,8.17,8.17,0,0,0,2.09.7,6.58,6.58,0,0,0,4.11-.58l1.75,3.6a11.09,11.09,0,0,1-3.21,1,10.56,10.56,0,0,1-3.37-.08,12.09,12.09,0,0,1-3.11-1,15,15,0,0,1-1.41-.79,11.78,11.78,0,0,1-1.37-1h0l-1.75-1.52,1.92-1.58a124.81,124.81,0,0,1,11.39-8.15c2-1.26,3.93-2.53,6-3.66A48.15,48.15,0,0,1,79.69,266.75Z"/><path class="cls-2" d="M235.54,134.12a2.55,2.55,0,1,1-2.55-2.55A2.55,2.55,0,0,1,235.54,134.12Z"/><path class="cls-2" d="M146.17,52l-11.3-8.37,3.08-1h0c-.18.79-.36,1.79-.51,2.7s-.27,1.88-.37,2.84c-.2,1.9-.34,3.82-.38,5.74a80.11,80.11,0,0,0,.6,11.57,107,107,0,0,0,2.19,11.51c.92,3.84,2.06,7.64,3.17,11.56a49.6,49.6,0,0,1-6-10.61,57.65,57.65,0,0,1-3.53-11.79,58.69,58.69,0,0,1-1-12.36,48.24,48.24,0,0,1,.56-6.22c.17-1,.35-2.06.61-3.09a27.82,27.82,0,0,1,.93-3.13h0L135,38.8l2.22,1.65,11.3,8.37Z"/><path class="cls-2" d="M135.59,75.5l-11.31-9.15,3.24-1.27h0c-.16,2.72-.26,5.63-.23,8.45s.16,5.68.47,8.5a61.87,61.87,0,0,0,1.5,8.4,50.26,50.26,0,0,0,2.88,8.22A26.55,26.55,0,0,1,127,91.26a39.61,39.61,0,0,1-2.91-8.62,49.88,49.88,0,0,1-1.12-9,42.55,42.55,0,0,1,.59-9.11h0l.49-3.49,2.75,2.22,11.3,9.15Z"/><path class="cls-2" d="M127.68,92.41,121,90.54l2.53-1.73h0c0,1.54.12,3.28.25,4.92s.32,3.34.55,5a80,80,0,0,0,2,9.83c.46,1.61.92,3.22,1.47,4.81s1.19,3.13,1.8,4.71c1.23,3.14,2.57,6.26,3.75,9.72a26.42,26.42,0,0,1-7.23-8,41.09,41.09,0,0,1-2.44-4.82,51.71,51.71,0,0,1-1.92-5.07,53.94,53.94,0,0,1-2.28-10.58,51.48,51.48,0,0,1-.31-5.41,34.85,34.85,0,0,1,.39-5.51h0l.22-2.37,2.31.64,6.7,1.87Z"/><path class="cls-3" d="M126.58,115.91l-6.65-4.69s-5.24,16.36,4,29.22"/><path class="cls-2" d="M175.76,175a32.17,32.17,0,0,1-16.65.4c-1.39-.27-2.73-.67-4.09-1s-2.67-.89-4-1.41a67.43,67.43,0,0,1-7.61-3.54,96,96,0,0,1-13.95-9.14A94.89,94.89,0,0,1,117.32,149c4.34,3.41,8.77,6.65,13.32,9.68a140.63,140.63,0,0,0,14,8.35,84.42,84.42,0,0,0,15,6A46.78,46.78,0,0,0,175.76,175Z"/><path class="cls-2" d="M105.62,142.28c.84.54,1.59,1.17,2.4,1.7s1.59,1.1,2.45,1.55a31.46,31.46,0,0,0,5.17,2.48l1.34.49,1.38.39c.92.26,1.85.47,2.8.64a30.79,30.79,0,0,0,5.79.52,15.79,15.79,0,0,1-5.93.54,21.19,21.19,0,0,1-5.86-1.32,21.65,21.65,0,0,1-5.26-2.87,21.07,21.07,0,0,1-2.29-1.91A27.56,27.56,0,0,1,105.62,142.28Z"/></g></g></svg>