<svg xmlns="http://www.w3.org/2000/svg" viewBox="0 0 1047.99 1042.21"><defs><style>.cls-1{fill:#fff;}</style></defs><title>burger_final1</title><g id="Layer_2" data-name="Layer 2"><g id="Layer_1-2" data-name="Layer 1"><path class="cls-1" d="M1010.17,602.81a48.83,48.83,0,0,0,12.05-33.52c-.59-23.92-18.89-43.81-42.24-47.52a64.62,64.62,0,0,0,13.63-55.68h9.89a44.42,44.42,0,0,0,44.35-47.91A452.69,452.69,0,0,0,926.36,144.77C854.74,68.93,755.07,21.51,638.13,7.63,544.83-3.45,459.52-2.46,384.56,10.57c-92.77,16.12-170.4,50.87-230.72,103.29A453.76,453.76,0,0,0,.14,418.19a44.44,44.44,0,0,0,44.35,47.9h9.88a64.74,64.74,0,0,0-1.51,15.79,63.86,63.86,0,0,0,15.22,39.76,49.41,49.41,0,0,0-42.31,50.08,48.15,48.15,0,0,0,6,22,77.36,77.36,0,0,0-22.54,46,69.73,69.73,0,0,0,17.63,55.49,74.67,74.67,0,0,0,28.7,19.43v64.15A62.06,62.06,0,0,0,23.05,833.3v18.91a190.52,190.52,0,0,0,190,190H834.94a190.52,190.52,0,0,0,190-190V833.3a62,62,0,0,0-32.49-54.51V730.18c22.62-8.65,40.19-28.59,44.53-52.57,3.32-18.34-1.88-38.57-15.45-60.14A97.2,97.2,0,0,0,1010.17,602.81ZM29.37,435.46a20,20,0,0,1-5.31-15.33c9-110.57,62-215.6,145.53-288.16C252.36,60,367.64,23.85,513.34,23.85a1037.63,1037.63,0,0,1,122,7.61C746.59,44.67,841.2,89.55,908.91,161.24a428.64,428.64,0,0,1,115,258.88,20,20,0,0,1-5.32,15.35,20.32,20.32,0,0,1-15.11,6.62h-959A20.33,20.33,0,0,1,29.37,435.46Zm939.28,30.63a41.11,41.11,0,0,1-38.56,55.08H118.81c-22.54,0-41.37-17.92-42-39.94a40.75,40.75,0,0,1,2.49-15.14ZM57.2,552.57a25.14,25.14,0,0,1,17.92-7.43H117.6c.41,0,.81,0,1.21,0H930.09c.41,0,.81,0,1.21,0h40.81c14.07,0,25.78,11.1,26.11,24.74A25.43,25.43,0,0,1,986,592.21l-.16.1a25.15,25.15,0,0,1-13,3.56H910a28.27,28.27,0,0,0-23,11.91l-43.86,61.88c0,.07-.1.13-.15.21l-23.54,33.21a48.84,48.84,0,0,1-79.7,0l-67.55-95.29a28.27,28.27,0,0,0-23-11.92H75.88c-14.07,0-25.78-11.1-26.11-24.74A25.07,25.07,0,0,1,57.2,552.57ZM44.65,679.11a46,46,0,0,1-11.6-36.64,53,53,0,0,1,15-31.06,50.16,50.16,0,0,0,27.86,8.46H649.15a4.23,4.23,0,0,1,3.45,1.79L712,705.51c-11.27-3.61-21.78-10.86-32.9-18.53-17-11.74-34.64-23.89-57.15-24.21h-.94c-21.21,0-38.95,10.24-54.63,19.29-18,10.42-33.64,19.41-52.45,14.18-12-3.33-23.77-10-36.3-17.11-22.43-12.7-47.87-27.1-77.51-21.4-16.59,3.2-29.84,12.25-42.65,21-7.32,5-14.24,9.73-21.5,13.19-29.67,14.14-52.84,2.28-79.67-11.45-22.21-11.37-45.17-23.13-73.55-21.07-19.94,1.44-36.94,10.61-53.38,19.48-14.66,7.91-28.51,15.38-43.1,16.64A51.35,51.35,0,0,1,44.65,679.11Zm956.29,173.1c0,91.53-74.47,166-166,166H213.05c-91.53,0-166-74.47-166-166V833.3a38,38,0,0,1,38-38H962.94a38,38,0,0,1,38,38Zm-38-80.91H85.05c-1.86,0-3.69.1-5.51.26V719.61a70.16,70.16,0,0,0,8.82-.19c19.56-1.69,36.28-10.71,52.45-19.43,14.86-8,28.9-15.59,43.71-16.66,21.69-1.57,40.73,8.18,60.89,18.5,28.38,14.52,60.55,31,100.92,11.75,8.94-4.26,17-9.74,24.72-15,11.29-7.71,21.95-15,33.64-17.25,21-4,40.5,7,61.16,18.72,13.23,7.49,26.91,15.23,41.68,19.34,28.52,7.94,51-5.05,70.89-16.51,14.31-8.26,27.85-16.08,42.63-16.08h.59c15.23.22,29.14,9.81,43.88,20,12.13,8.37,24.68,17,39.43,21.7a68.67,68.67,0,0,0,28.71,3A73,73,0,0,0,839,717l19-26.79c13,4,25.85,11.42,39.35,19.23,21.64,12.51,44,25.43,69.65,25.43l1.44,0v36.76C966.63,771.4,964.8,771.3,962.94,771.3Zm50.43-98c-3.56,19.61-21.65,35.65-42.1,37.32-20.85,1.71-40.79-9.82-61.89-22-11.88-6.87-24-13.91-36.92-18.83l34.12-48.14a4.25,4.25,0,0,1,3.45-1.78h62.84a49.32,49.32,0,0,0,17.34-3.13,72,72,0,0,1,11,13.51C1011.49,646.59,1015.58,661.09,1013.37,673.33Z"/></g></g></svg>