<svg xmlns="http://www.w3.org/2000/svg" viewBox="0 0 913.04 407.51"><defs><style>.cls-1,.cls-2{fill:none;stroke:#c7c8ca;stroke-miterlimit:10;stroke-width:8px;}.cls-2{fill-rule:evenodd;}</style></defs><title>FastDelivery11</title><g id="Layer_2" data-name="Layer 2"><g id="Layer_1-2" data-name="Layer 1"><path class="cls-1" d="M778.5,403.51A61.5,61.5,0,1,0,717,342a61.5,61.5,0,0,0,61.5,61.5Z"/><path class="cls-2" d="M778.5,403.51A61.5,61.5,0,1,0,717,342a61.5,61.5,0,0,0,61.5,61.5Z"/><path class="cls-1" d="M313.5,401.51A61.5,61.5,0,1,0,252,340a61.5,61.5,0,0,0,61.5,61.5Z"/><path class="cls-2" d="M313.5,401.51A61.5,61.5,0,1,0,252,340a61.5,61.5,0,0,0,61.5,61.5Z"/><line class="cls-1" x1="806.24" y1="234.17" x2="881.76" y2="234.17"/><line class="cls-1" x1="886" y1="283.09" x2="871" y2="282.93"/><path class="cls-1" d="M696,110.51H798.2A49,49,0,0,1,843.57,141l37.8,92.62h0a40.13,40.13,0,0,1,21,31.07l6.55,60a17,17,0,0,1-15.05,18.75,16.38,16.38,0,0,1-1.85.1H831.13"/><line class="cls-1" x1="666.5" y1="4.01" x2="157.39" y2="4"/><polyline class="cls-1" points="667 4.51 667 343.51 375 343.51"/><polyline class="cls-1" points="157 5.51 157 58.51 417 58.51"/><line class="cls-1" x1="542" y1="111.01" y2="111.01"/><line class="cls-1" x1="493.83" y1="174.01" x2="117.72" y2="174.51"/><polyline class="cls-1" points="262 343.51 158 343.51 158 297.51"/><line class="cls-1" x1="54.46" y1="244.17" x2="311.4" y2="244.17"/><line class="cls-1" x1="726.37" y1="344.01" x2="696.62" y2="344.51"/></g></g></svg>