<svg xmlns="http://www.w3.org/2000/svg" viewBox="0 0 926.04 425.01"><defs><style>.cls-1,.cls-2,.cls-3{fill:none;stroke:#c7c8ca;}.cls-1,.cls-3{stroke-linecap:round;}.cls-1,.cls-2{stroke-miterlimit:10;}.cls-1{stroke-width:34px;}.cls-2{fill-rule:evenodd;}.cls-3{stroke-linejoin:round;stroke-width:17px;}</style></defs><title>FastDelivery1</title><g id="Layer_2" data-name="Layer 2"><g id="Layer_1-2" data-name="Layer 1"><path class="cls-1" d="M787,408a61.5,61.5,0,1,0-61.5-61.5A61.5,61.5,0,0,0,787,408Z"/><path class="cls-2" d="M787,408a61.5,61.5,0,1,0-61.5-61.5A61.5,61.5,0,0,0,787,408Z"/><path class="cls-1" d="M322,406a61.5,61.5,0,1,0-61.5-61.5A61.5,61.5,0,0,0,322,406Z"/><path class="cls-2" d="M322,406a61.5,61.5,0,1,0-61.5-61.5A61.5,61.5,0,0,0,322,406Z"/><line class="cls-3" x1="814.74" y1="238.67" x2="890.26" y2="238.67"/><line class="cls-3" x1="894.5" y1="287.59" x2="879.5" y2="287.43"/><path class="cls-3" d="M704.5,115H806.7a49,49,0,0,1,45.37,30.48l37.8,92.62h0a40.13,40.13,0,0,1,21,31.07l6.55,60a17,17,0,0,1-15.05,18.75,16.38,16.38,0,0,1-1.85.1H839.63"/><line class="cls-3" x1="675" y1="8.51" x2="165.89" y2="8.5"/><polyline class="cls-3" points="675.5 9.01 675.5 348.01 383.5 348.01"/><polyline class="cls-3" points="165.5 10.01 165.5 63.01 425.5 63.01"/><line class="cls-3" x1="550.5" y1="115.51" x2="8.5" y2="115.51"/><line class="cls-3" x1="502.33" y1="178.51" x2="126.22" y2="179.01"/><polyline class="cls-3" points="270.5 348.01 166.5 348.01 166.5 302.01"/><line class="cls-3" x1="62.96" y1="248.67" x2="319.9" y2="248.67"/><line class="cls-3" x1="734.87" y1="348.51" x2="705.12" y2="349.01"/></g></g></svg>