<svg xmlns="http://www.w3.org/2000/svg" viewBox="0 0 663.94 663.94"><defs><style>.cls-1{fill:#231f20;}</style></defs><title>final1</title><g id="Layer_2" data-name="Layer 2"><g id="Layer_1-2" data-name="Layer 1"><path class="cls-1" d="M458.86,559.57c-26.24,0-62.32-7-93-15.29-35.8-9.69-104.91-32-165.52-72.36a135.89,135.89,0,0,1-56.54-82c-5.93-25.94-3.08-55,8.48-86.49.71-1.93,1.45-3.87,2.17-5.74,2.86-7.48,5.56-14.54,6.54-21.61,1.15-8.32-.63-15.78-4.76-20-.83-.84-3.46-4.42-10.57-4a20.64,20.64,0,0,0-6.1,1.34l-10,3.38a4.23,4.23,0,0,1-5.09-6l4.28-8.14q2.41-4.59,5.24-9c5.08-7.81,11.18-16.06,19.28-22.7,13.58-11.13,30.17-15,44.39-10.39,8.12,2.64,15.12,6.66,21.89,10.56,3,1.73,5.85,3.36,8.74,4.85,11.56,6,16.19,5.64,20.69,3,31.73-18.79,76.28-71.29,91.68-108h0a10.73,10.73,0,0,1,20.16,1h0a301.94,301.94,0,0,1,11.27,114,13.74,13.74,0,0,0,17,14.67c40.93-10.28,84.4-31.12,134.12-64.06h0a10.73,10.73,0,0,1,16.36,11.48h0c-9.52,39.08-19.36,79.48-38.85,116.31a228.93,228.93,0,0,1-39.71,53.31c-16.7,16.81-35.26,30.46-53.67,39.49-7.05,3.46-13.65,6.18-19.48,8.58-8.76,3.62-16.33,6.74-21.45,10.79-4.47,3.54-6.18,7.72-5.56,13.58.59,5.6,3.5,12.41,8,18.7,7.87,11.07,19,18.49,33.82,27.76,22.78,14.24,41.77,22.16,60.14,29.82l1.85.77c7.84,3.27,15.36,6.56,21.25,10.79,11.44,8.21,12.55,17.37,11.46,23.6-.62,3.55-3,10.11-12.28,14.07C478.72,558.4,469.61,559.57,458.86,559.57ZM161.59,232.66a1.25,1.25,0,0,0,.48,2,27.69,27.69,0,0,1,9.48,6.33c8.91,9,12.82,22.88,10.73,38-1.32,9.5-4.59,18.06-7.75,26.34-.73,1.89-1.41,3.67-2.07,5.48-10.1,27.48-12.7,52.48-7.71,74.29,6.3,27.56,24.06,53.34,47.52,69,44.07,29.37,104.26,55.27,165.14,71.07,25.7,6.67,49.43,11,68.62,12.46,12,.92,19.67.54,24.41-.14a1.9,1.9,0,0,0,.72-3.51l-.06,0A123.45,123.45,0,0,0,456.42,527l-1.84-.77c-19.17-8-39-16.26-63.26-31.43-16.41-10.26-29.77-19.24-39.93-33.51-4.71-6.61-10.58-17-11.84-28.89-1.37-13,3.45-24.64,13.58-32.67,7.48-5.92,16.34-9.57,26.6-13.8,5.79-2.39,11.78-4.86,18.21-8,32.53-15.95,65.44-48.76,83.86-83.57,11-20.73,18.79-43.14,25.28-65.93a8.14,8.14,0,0,0-11.86-9.29c-50.12,28.55-94.82,44.35-138.3,49.14h0a10.74,10.74,0,0,1-11.56-13.39h0c6.49-24.8,8.09-55.32,5-85.45a9.3,9.3,0,0,0-16.78-4.5c-5,6.81-10.34,13.65-16,20.38-19.71,23.29-40.18,41.82-57.64,52.16-15.13,8.95-29.45,3.82-41.47-2.37-3.33-1.72-6.51-3.55-9.6-5.32-6.09-3.5-11.84-6.81-17.82-8.76-8.51-2.77-18.06,1.59-24.15,6.58h0A52.91,52.91,0,0,0,161.59,232.66Z"/><path class="cls-1" d="M332,0C148.63,0,0,148.63,0,332s148.63,332,332,332,332-148.63,332-332S515.31,0,332,0Zm0,646.77c-173.86,0-314.8-140.94-314.8-314.8S158.11,17.17,332,17.17,646.77,158.11,646.77,332,505.83,646.77,332,646.77Z"/></g></g></svg>