<svg xmlns="http://www.w3.org/2000/svg" viewBox="0 0 198.42 248.02"><defs><style>.cls-1{fill:#c7c8ca;}</style></defs><title>MinOrder1</title><g id="Layer_2" data-name="Layer 2"><g id="icons"><path class="cls-1" d="M99.21,0a99.21,99.21,0,0,0,0,198.42h49.6A49.6,49.6,0,0,1,198.42,248V99.21A99.21,99.21,0,0,0,99.21,0Zm-.3,66.21c0,14-6.68,22.71-18.94,25.39,1,12,1.42,30.27,1.42,45.33,0,29.29,1.09,40.19-10.12,40.19s-10.11-10.9-10.11-40.19c0-15.06.42-33.32,1.41-45.33C50.31,88.92,43.64,80.16,43.64,66.21V37.87a5.27,5.27,0,0,1,10.53,0V66.21c0,9.42,3.51,14.14,11.84,15.41V37.87a5.27,5.27,0,0,1,10.53,0V81.62c8.32-1.27,11.84-6,11.84-15.41V37.87a5.27,5.27,0,0,1,10.53,0Zm55.87,78.33c0,23.14-1.82,32.58-12.75,32.58s-10.11-9.44-10.11-32.58c0-18.21.51-6.41.51-29.16-.46-1.63-1-3.26-1.43-4.92-3.89-13.2-8.29-15-8.29-39.54,0-26.07,7.18-38.31,16.69-38.31,11.35,0,15.38,17.22,15.38,38.31Z"/></g></g></svg>