<svg xmlns="http://www.w3.org/2000/svg" viewBox="0 0 1040.4 1200"><defs><style>.cls-1{fill:#c7c8ca;}</style></defs><title>OnlinePay11</title><g id="Layer_2" data-name="Layer 2"><g id="Layer_1-2" data-name="Layer 1"><path class="cls-1" d="M647.07,608.2a47,47,0,0,1-46.91-46.91,11.77,11.77,0,0,1,23.53,0,23.38,23.38,0,1,0,23.38-23.38A46.91,46.91,0,1,1,694,491a11.77,11.77,0,1,1-23.53,0,23.38,23.38,0,1,0-23.38,23.38,46.91,46.91,0,0,1,0,93.82Z"/><path class="cls-1" d="M647.09,631.4a11.77,11.77,0,0,1-11.77-11.77V596.44a11.77,11.77,0,0,1,23.53,0v23.19A11.77,11.77,0,0,1,647.09,631.4Z"/><path class="cls-1" d="M647.09,467.6a11.77,11.77,0,0,1-11.77-11.77V432.69a11.77,11.77,0,0,1,23.53,0v23.14A11.77,11.77,0,0,1,647.09,467.6Z"/><path class="cls-1" d="M647.07,376.46c-82.54,0-149.69,67.16-149.69,149.7s67.15,149.7,149.69,149.7,149.7-67.16,149.7-149.7S729.62,376.46,647.07,376.46Zm0,275.86A126.16,126.16,0,1,1,773.23,526.16,126.3,126.3,0,0,1,647.07,652.32Z"/><path class="cls-1" d="M339.49,737.09c0-.88,0-1.75-.05-2.63,0-.17,0-.36,0-.54,0-.93-.08-1.86-.16-2.78s-.16-1.81-.27-2.69a2,2,0,0,0,0-.34c-.09-.88-.22-1.74-.36-2.61,0-.06,0-.12,0-.17H277.28V327h61.28c.16-1.07.32-2.15.43-3.25.11-.85.19-1.71.26-2.58s.13-1.85.16-2.78c0-.18,0-.37,0-.54,0-.88.05-1.75.05-2.63a11.76,11.76,0,0,1,11.76-11.76H265.52a11.76,11.76,0,0,0-11.76,11.76V737.09a11.76,11.76,0,0,0,11.76,11.76h85.73A11.76,11.76,0,0,1,339.49,737.09Zm689.12-433.62H265.52a11.76,11.76,0,0,0-11.76,11.76V737.09a11.76,11.76,0,0,0,11.76,11.76h763.09a11.76,11.76,0,0,0,11.77-11.76V315.23A11.76,11.76,0,0,0,1028.61,303.47Zm-11.76,421.86H277.28V327h739.57ZM339.49,737.09c0-.88,0-1.75-.05-2.63,0-.17,0-.36,0-.54,0-.93-.08-1.86-.16-2.78s-.16-1.81-.27-2.69a2,2,0,0,0,0-.34c-.09-.88-.22-1.74-.36-2.61,0-.06,0-.12,0-.17H277.28V327h61.28c.16-1.07.32-2.15.43-3.25.11-.85.19-1.71.26-2.58s.13-1.85.16-2.78c0-.18,0-.37,0-.54,0-.88.05-1.75.05-2.63a11.76,11.76,0,0,1,11.76-11.76H265.52a11.76,11.76,0,0,0-11.76,11.76V737.09a11.76,11.76,0,0,0,11.76,11.76h85.73A11.76,11.76,0,0,1,339.49,737.09Z"/><path class="cls-1" d="M265.54,412.77a11.77,11.77,0,0,1,0-23.53,74.06,74.06,0,0,0,73.95-74,11.77,11.77,0,1,1,23.53,0A97.61,97.61,0,0,1,265.54,412.77Z"/><path class="cls-1" d="M1040.4,401a1.51,1.51,0,0,1,0,.3,11.73,11.73,0,0,1-11.74,11.46,95.34,95.34,0,0,1-11.79-.72,97.68,97.68,0,0,1-85-85,95.42,95.42,0,0,1-.72-11.78,11.76,11.76,0,0,1,23.52,0,75.1,75.1,0,0,0,.93,11.78,74,74,0,0,0,73.09,62.22,11.74,11.74,0,0,1,11.74,11.47A1.62,1.62,0,0,1,1040.4,401Z"/><path class="cls-1" d="M351.25,748.85a11.77,11.77,0,0,1-11.76-11.76,74.06,74.06,0,0,0-73.95-74,11.76,11.76,0,1,1,0-23.52A97.61,97.61,0,0,1,363,737.09,11.77,11.77,0,0,1,351.25,748.85Z"/><path class="cls-1" d="M1040.4,651.33a1.51,1.51,0,0,1,0,.3,11.73,11.73,0,0,1-11.74,11.46,74,74,0,0,0-73.09,62.24,74.65,74.65,0,0,0-.93,11.76,11.76,11.76,0,0,1-23.52,0,95,95,0,0,1,.72-11.76,97.69,97.69,0,0,1,85-85.06,95.34,95.34,0,0,1,11.79-.72A11.74,11.74,0,0,1,1040.38,651,1.62,1.62,0,0,1,1040.4,651.33Z"/><path class="cls-1" d="M658.85,55V313.66a11.77,11.77,0,0,1-23.54,0V55a31.51,31.51,0,0,0-31.5-31.46H55A31.49,31.49,0,0,0,23.54,55V1145A31.49,31.49,0,0,0,55,1176.46H603.81a31.51,31.51,0,0,0,31.5-31.45V738.66a11.77,11.77,0,1,1,23.54,0V1145a55.09,55.09,0,0,1-55,55H55a55,55,0,0,1-55-55V55A55,55,0,0,1,55,0H603.81A55.08,55.08,0,0,1,658.85,55Z"/><path class="cls-1" d="M658.83,973.79a11.75,11.75,0,0,1-11.76,11.76H11.78A11.73,11.73,0,0,1,0,974.1a1.62,1.62,0,0,1,0-.31,1.51,1.51,0,0,1,0-.3A11.75,11.75,0,0,1,11.78,962H647.07A11.77,11.77,0,0,1,658.83,973.79Z"/><path class="cls-1" d="M397.7,1034.86H261.15a46.16,46.16,0,1,0,0,92.32H397.7a46.16,46.16,0,0,0,0-92.32Zm0,68.79H261.15a22.64,22.64,0,1,1,0-45.27H397.7a22.64,22.64,0,0,1,0,45.27Z"/><path class="cls-1" d="M400,90.29H258.86a11.77,11.77,0,0,1,0-23.53H400a11.77,11.77,0,1,1,0,23.53Z"/></g></g></svg>